<?xml version="1.0" encoding="utf-8"?>
<!-- Generator: Adobe Illustrator 25.0.1, SVG Export Plug-In . SVG Version: 6.00 Build 0)  -->
<svg version="1.1" id="Layer_1" xmlns="http://www.w3.org/2000/svg" xmlns:xlink="http://www.w3.org/1999/xlink" x="0px" y="0px"
	 width="16px" height="16px" viewBox="0 0 16 16" enable-background="new 0 0 16 16" xml:space="preserve">
<path fill="#EC312E" d="M8,0.5c-4.2,0-7.5,3.4-7.5,7.5s3.4,7.5,7.5,7.5s7.5-3.4,7.5-7.5S12.2,0.5,8,0.5z M12.1,12
	c-0.2,0.1-0.4,0.1-0.6,0L6.8,9.4h3.4L8.1,4.8L5,11.7c-0.2,0.4-0.5,0.5-0.9,0.4c-0.5-0.2-0.6-0.6-0.4-1L7,3.4l0,0
	c0.2-0.4,0.6-0.7,1-0.6c0.4,0,0.8,0.3,1,0.7l3.4,7.6C12.6,11.4,12.5,11.9,12.1,12z"/>
</svg>
                      