<?xml version="1.0" encoding="UTF-8"?>
<svg width="16" height="16" version="1.1" viewBox="0 0 16 16" xmlns="http://www.w3.org/2000/svg">
 <g fill="#9aa7b0" fill-opacity=".8">
  <path d="m7 1-4 4h4z"/>
  <path d="m8 1v5h-5v2h10v-7z"/>
 </g>
 <path d="m1 16h15v-7h-15z" fill="#bda0bd" fill-opacity=".6"/>
 <g fill="#231f20" fill-opacity=".7">
  <path d="M 2,12.501 C 2,11 2.931,10 4.256,10 5.20239,10 5.55,10.311 5.969,10.753 L 5.4267,11.4271 C 5.0767,11.0681 4.75,11 4.25,11 3.418,11 3,11.7379 3,12.487 3,13.2361 3.412,14 4.25,14 4.787,14 5.0517,13.8934 5.4267,13.5064 L 6,14.144 C 5.544,14.669 5.19733,15 4.225,15 2.949,15 2,14.002 2,12.501 Z"/>
  <path d="m7.7024 11.502c0-0.3684 0.31123-0.5015 0.87223-0.5015h1.155v-1h-1.14c-1.082 0-1.86 0.4592-1.86 1.45 0 0.8645 0.41956 1.2405 1.4712 1.4661 0.77034 0.1652 1.0249 0.3125 1.0249 0.6319s-0.35773 0.452-1.0249 0.452h-1.1712v1h1.1712c2.0288 0 2.0288-1 2.0288-1.452 0-0.6319-0.4797-1.1273-1.3413-1.4011-0.86157-0.2739-1.1859-0.2769-1.1859-0.6454z"/>
  <path d="m12.414 15-1.9054-5h0.99678c0.98723 2.6161 1.4855 3.9494 1.495 4l1.4951-4h0.99661l-1.9054 5z"/>
 </g>
</svg>
