<?xml version="1.0" encoding="utf-8"?>
<!-- Generator: Adobe Illustrator 25.0.1, SVG Export Plug-In . SVG Version: 6.00 Build 0)  -->
<svg version="1.1" id="Layer_1" xmlns="http://www.w3.org/2000/svg" xmlns:xlink="http://www.w3.org/1999/xlink" x="0px" y="0px"
	 viewBox="0 0 16 16" enable-background="new 0 0 16 16" xml:space="preserve">
<g>
	<polygon fill-rule="evenodd" clip-rule="evenodd" fill="#9AA7B0" fill-opacity="0.8" points="7,1 3,5 7,5 	"/>
	<path fill-rule="evenodd" clip-rule="evenodd" fill="#9AA7B0" fill-opacity="0.8" d="M8,1v5H3c0,3,0,6,0,9c0.2,0,0.4,0,0.6,0
		c0.2,0,0.3,0,0.5,0c0.2,0,0.4,0,0.6,0c0.3,0,0.5,0,0.8,0c0.1,0,0.2,0,0.3,0c0.1,0,0.2,0,0.4,0c0.1,0,0.1,0,0.2,0c0.1,0,0.3,0,0.4,0
		c0.2,0,0.4,0,0.5,0c0.2,0,0.4,0,0.6,0c0.1,0,0.2,0,0.4,0c0.1,0,0.2,0,0.3,0c0.1,0,0.1,0,0.2,0c0,0,0.1,0,0.1,0c0,0,0,0,0,0
		c0.1,0-0.3-1.5,0.3-2.5c0.1-0.1,0.3-0.5,0.7-0.7c0.5-0.2,1.2-0.3,1.2-0.4c0,0,0,0,0-0.1c0,0,0-0.2,0-0.2c0-0.1,0-0.1,0-0.2
		c0-0.3,0-0.5,0-0.8c0-0.1,0-0.2,0-0.3c0-0.1,0-0.2,0-0.3c0-0.3,0-0.6,0-0.9c0-0.3,0-0.5,0-0.8c0-0.1,0-0.2,0-0.4c0,0,0-0.1,0-0.1
		c0,0,0-0.1,0-0.1c0,0,0,0,0,0c0,0,0,0,0,0c0,0,0,0,0,0c0,0,0,0,0,0c0,0,0,0,0,0c0.1,0,0.1,0,0.2,0c0.1,0,0.3,0,0.4,0
		c0.1,0,0.3,0,0.4,0c0.1,0,0.3,0,0.4,0c0.1,0,0.2,0,0.3,0c0,0,0.1,0,0.1,0c0,0,0,0,0.1,0c0,0,0,0,0,0h0c0,0,0,0,0,0c0,0,0-0.1,0-0.1
		c0-0.1,0-0.1,0-0.2c0-0.1,0-0.1,0-0.2c0-0.1,0-0.2,0-0.2c0-0.1,0-0.2,0-0.4c0-0.2,0-0.4,0-0.5c0-0.2,0-0.3,0-1c0-0.4,0-1,0-1.6
		c0-0.1,0-0.1,0-0.2C13,2,13,1.4,13,1C11.3,1,9.7,1,8,1z"/>
</g>
<path fill="#59baf1" d="M11.5,7.8v4.5c-0.2,0-0.4-0.1-0.6-0.1c-0.9,0-1.6,0.8-1.6,1.7s0.8,1.7,1.7,1.7s1.7-0.8,1.7-1.7V9.4h2.3V7.8
	C14.8,7.8,11.5,7.8,11.5,7.8z" fill-opacity="0.8"/>
</svg>
